<svg xmlns="http://www.w3.org/2000/svg" xmlns:xlink="http://www.w3.org/1999/xlink" width="316.996" height="79.99" viewBox="0 0 316.996 79.99">
  <defs>
    <linearGradient id="linear-gradient" x1="0.016" y1="1.034" x2="0.838" y2="0.173" gradientUnits="objectBoundingBox">
      <stop offset="0" stop-color="#ee3e80"/>
      <stop offset="1" stop-color="#fed09e"/>
    </linearGradient>
    <clipPath id="clip-path">
      <path id="Path_26" data-name="Path 26" d="M41.58,53.55a55.482,55.482,0,0,0-2.43-11.33c-.19-.57-.39-1.14-.6-1.7.66-1.41,1.38-2.78,2.14-4.1a2.025,2.025,0,0,0,.57-.31,1.765,1.765,0,0,0,.7-1.78C53.14,16.78,71.84,8,71.84,8s7.77,24.38-1.27,46.6c-.52.22-1.04.43-1.55.67C58.5,60.09,50.54,68.01,45.05,75.04A106.338,106.338,0,0,0,41.58,53.55Z"/>
    </clipPath>
    <linearGradient id="linear-gradient-2" x1="0.999" y1="1.007" x2="0.165" y2="0.168" xlink:href="#linear-gradient"/>
    <clipPath id="clip-path-2">
      <path id="Path_52" data-name="Path 52" d="M34.83,72.11a68.766,68.766,0,0,1,.62-25.04c-.09-.61-.18-1.23-.28-1.86a.454.454,0,0,0-.33-.55L29,43.88l6.05-3.06c1.17-.55,1.49-.56,2.05.5.09-.27.19-.53.29-.79-.41-.87-.84-1.73-1.29-2.56a1.307,1.307,0,0,0-.34.41s.05-.29.16-.74C25.15,17.88,4.11,8,4.11,8S-3.66,32.38,5.38,54.6c.52.22,1.04.43,1.55.67,11.94,5.48,20.59,14.94,26.06,22.57A47.616,47.616,0,0,0,34.83,72.11Z"/>
    </clipPath>
    <linearGradient id="linear-gradient-3" x1="0.492" y1="0.809" x2="0.521" y2="0.146" xlink:href="#linear-gradient"/>
  </defs>
  <g id="Indology_Logo" data-name="Indology Logo" transform="translate(-1.004 -1)">
    <g id="Group_7" data-name="Group 7">
      <path id="Path_1" data-name="Path 1" d="M41.58,53.55a55.482,55.482,0,0,0-2.43-11.33c-.19-.57-.39-1.14-.6-1.7.66-1.41,1.38-2.78,2.14-4.1a2.025,2.025,0,0,0,.57-.31,1.765,1.765,0,0,0,.7-1.78C53.14,16.78,71.84,8,71.84,8s7.77,24.38-1.27,46.6c-.52.22-1.04.43-1.55.67C58.5,60.09,50.54,68.01,45.05,75.04A106.338,106.338,0,0,0,41.58,53.55Z" fill-rule="evenodd" fill="url(#linear-gradient)"/>
      <g id="Group_3" data-name="Group 3">
        <g id="Group_2" data-name="Group 2" clip-path="url(#clip-path)">
          <g id="Group_1" data-name="Group 1">
            <path id="Path_2" data-name="Path 2" d="M84.05,58.57c-2.13.2-18.46-6.39-32.3,4.28a5.081,5.081,0,0,0-1.42,1.39.2.2,0,0,0,.22.01,43.006,43.006,0,0,1,4.57-2.35c2.43-1.17,9.96-3.69,12.62-3.48.61.05,8.39-.42,11.75-.07,6.05.65,4.82.2,4.56.22ZM33.39,17.89c2.08,5.4,9.26,8.93,14.29,13.33,5.1,4.46-3.6-4.97-9.37-8.8a8.033,8.033,0,0,1-.68-.51,20.5,20.5,0,0,1-3.68-3.62c-.29-.43-.56-.74-.65-.71a1.293,1.293,0,0,0,.09.31ZM92.68,38.27a14.62,14.62,0,0,1-4.74.11c-.59-.1-18.63.1-28.86,5.76-.5.27-.93.53-.97.56a.885.885,0,0,0-.01.6.6.6,0,0,0,.11.06,2.489,2.489,0,0,0,.66-.38c7.55-5.15,21.45-3.37,27.48-4.81,5.67-1.34,8.04-2.15,6.33-1.9ZM75.63,19.58c-.01.02.05.02.13.01.19-.02.22-.08.02-.06a.809.809,0,0,0-.15.05ZM46.92-5.05h0c-.02-.2.05-.12.4.44C52.4,3.34,66.17,7.55,65.88,20.45a6.542,6.542,0,0,1-.06,1.78c-.07.1-.18-.39-.47-2.04a18.034,18.034,0,0,0-2.05-6.14C60.74,8.58,53.35,3.01,52.96,2.43S47.12-3.3,46.92-5.05Zm1.39-1.91C50.13-1.65,61.53,3.6,64.76,10.15a4.056,4.056,0,0,0,.34.58c1.21,1.46,2.81,5.45,2.53,7.62-.03.22-.03.87-.02,1.45a11.925,11.925,0,0,1-.04,1.57c-.11.71-.1.74.04.59.42-.42.62-3.72.72-4.12a26.149,26.149,0,0,0-.08-2.69,19.447,19.447,0,0,0-3.1-7.34,40.84,40.84,0,0,0-4.66-4.35c-1.28-.83-4.83-3.98-5.37-4.38a23.454,23.454,0,0,1-3.58-2.81c-.61-.66-1.36-2.27-.73-2.25.14,0,.18.06.37.61.67,1.83,4.27,3.68,6.9,6.12,2.53,2.36,3.1,2.04,4.89,4.05.26.3.86.68,1.62,1.52.25.28.57.62.72.76a17.078,17.078,0,0,1,3.47,8.77c.16,2.86.8-.4.24-3.25C67.94,7.11,66.44,7.01,59.28.8c-.98-.85-.15.13-1.66-1.46-.47-.49-1.79-2.09-1.12-2.29.15-.04.24.05.62.65A9.126,9.126,0,0,0,59.59.23C67.76,6.65,68.63,7.79,69.62,13c.12.65.16.62.4.18a1.963,1.963,0,0,0,.2-1.01c.29-5.35-3.45-7.1-7.7-10.34A9.228,9.228,0,0,0,61.15.89c-.86-.5-3.35-3.17-2.26-3.35.15-.02.4.27.67.76,1.01,1.86,4.88,3.63,7.55,6.1,1.63,1.5,2.81,2.29,3.49,5.52.06.3.07.31.2.22.52-.33.27-.78.18-1.61-.44-4.24-3.4-4.59-6.58-7.25C63.58.59,63.24.1,63.38-.23c.29-.69.48.26,1.64,1.19,2.75,2.2,6.03,3.03,6.45,7.18.07.71.7-.52.27-2.09-.34-1.22-1.86-3.15-1.16-3.13.45.02.46.54.75.88a13.425,13.425,0,0,1,1.04,2.22.76.76,0,0,0,.28-.16c.19-.15.2-.18.19-.4a3.424,3.424,0,0,0-.15-.66c-.22-.67,0-.97.37-.52.7.84-.58,1.34,2.15,1.29a7.514,7.514,0,0,0,1.55-.06c.66-.17.74.35-.14.66-1.11.39-2.85-.36-3.89.42-.29.22-.37.36-.32.54.03.09.08.1.35.02a9.755,9.755,0,0,1,1.28-.31,5.494,5.494,0,0,1,2.12-.08,5.228,5.228,0,0,0,2.81.34c1.3-.42,1.73-.47,1.63.13-.04.25-.14.32-.4.3-.83-.06-1.2.79-3.7.03a5.352,5.352,0,0,0-3.85.48c-2.03,2.36-.51.85,1.31.48a7.413,7.413,0,0,1,2.36-.13,24.414,24.414,0,0,0,2.54.03,12.026,12.026,0,0,0,3.44-.48c.78-.37.85.11.26.52-2.02,1.39-8.65-.56-11.28,2.13-.53.54-.52.38-.55,1-.07,1.66-.2.62,2.26-.37,2.56-1.03,4.34-.66,5.74-1.02,3.44-.87,4.92-.4,6.11-1.22.32-.22.57-.24.67-.05.11.21-.06.41-.66.77a3.049,3.049,0,0,1-1.84.52c-3.25.25-4.11.9-6.7,1.01-2.18.09-5.21,1.12-6.21,3.15-.76,1.53-.24,1.02.21.57C74,11.2,81.16,12.13,85.25,10.14c1.33-.65,1.68-.74,1.61-.41-.36,1.68-10.99,2.77-13.6,3.98-2.96,1.38-4.1,3.57-2.67,2.38a9.95,9.95,0,0,1,1.38-.9c2.46-1.63,4.5-1.53,6.9-2.32,4.03-1.34,3.92.94,10.72-2.32.48-.23.54-.24.72-.15a.345.345,0,0,1,.22.31c.02.2.01.21-.12.22-.67.08-5.48,2.54-7.45,2.16-1.46-.28-8.63,1.17-11.31,2.97a8.067,8.067,0,0,0-1.8,1.58c-2.39,2.36,1.86-1.14,6.38-2.66,5.03-1.69,12.33.01,16.87-3.09.15-.1.26-.13.36-.09.22.09.09.44-.23.63-6.41,3.81-11.73.87-18.96,4.09-1.93.86-5.18,2.54-1.72,1.16,6.9-2.76,17.78-.54,22.45-4.8.49-.45.85-.06.26.48a2.022,2.022,0,0,0-.32.34,14.751,14.751,0,0,1-4.11,1.99,33.323,33.323,0,0,1-7.53,1.02c-6.8-.09-14.33,2.33-14.91,4.5-.08.29-.08.31.04.24,8.64-5.33,21.93-1.37,28.11-7.25.46-.44.51-.46.71-.35.82.45-2.85,2.55-3.56,2.9-4.84,2.33-15.88,1.95-17.7,2.81a2.629,2.629,0,0,0,.75-.05c.4-.07,2.35.1,2.86.08,2.73-.1,2.8.74,9.76-.55.33-.06.91-.15,1.29-.19.92-.11,5.7-1.84,7.27-3.47.27-.28.99-1.16,1.21-.85.13.18.02.34-.52.85-1.99,1.86-1.87,1.8-5.64,3.35a9.308,9.308,0,0,1-3.44.92,4.665,4.665,0,0,0-.74.09c-3.77,1.32-9.51.12-13.32.54-.44.05-1.32.13-1.97.18-2.7.22-5.62,1.73-5.5,2.42a3.869,3.869,0,0,0,1.44-.63,14.464,14.464,0,0,1,3.05-.92c3.84-.78,13.45,1.34,21.35-2.01,3.03-1.28,4.07-1.4,6.13-3.04.79-.62.8-.63,1.02-.54,1.26.53-9.23,7.65-24.65,6.02-2.53-.27-7.92.64-8.85,2.75a1.686,1.686,0,0,0-.2.59c.68-.11,2.48-2.79,10.37-2.55,3.73.11,16.87,1.17,23.56-5.24.74-.71,1.59-1.66,1.77-1.22a1.069,1.069,0,0,1-.55.88,15.94,15.94,0,0,1-4.73,3.26c-13.89,6.43-25.29-.45-31.07,6.33-.7.82-.47.72.44.37,11.2-4.27,27.24.96,36.61-9.09.22-.23.46-.47.54-.53.16-.13.39-.1.38.04a3.452,3.452,0,0,1-.93,1.27C97.09,25.28,87,24.98,85.04,25.29c-3.95.63-18.93-.09-19.96,4.27-.13.53-.07.57.31.24,2.41-2.06,6.33-3.8,13.22-3.32,3.7.26,6.86-.61,10.17-.85,10.08-.74,14.3-5.53,15.6-6.45.34-.24,1.54-1.49,1.54-1.49.77-.42.71,1.11-6.02,5.43-.66.42-5.81,2.76-8.56,2.94-7.32.5-4.15.99-16.17,1.1-.41,0-.77-.01-.81-.02-.54-.23-5.89.59-9.25,3.71l-.03.41c-.04.52,0,.47.4.22,6.49-4.1,11.17-3.64,18.58-3.49,17.08.34,22.44-9.22,23.1-9.58a.233.233,0,0,1,.31.11,10.793,10.793,0,0,1-2.16,2.89c-10.63,9.92-23.76,6.4-31.73,7.56-9.34,1.37-12.42,8.67-11.15,7.18,2.9-3.41,5.88-4.41,7.06-5.15,3.37-2.12,14.46-.4,25.89-3.03a22.668,22.668,0,0,0,12.08-8.21c.45-.6.79-.92.92-.86.17.07-.69,1.31-.77,1.49-.42,1.01-2.49,2.87-3.31,3.59-11.03,9.56-26.8,4.14-35.5,8.08-3.19,1.45-6.81,5.13-4.44,3.32,8.9-6.81,16.04-2.66,23.1-3.98,3.4-.63,6.54.04,11.65-2.59,7.27-3.75,6.54-4.47,9.35-8.25.45-.6.51-.67.61-.6.33.2-.81,1.85-1.01,2.18a12,12,0,0,1-3.75,4.37c-9.74,6.41-12.59,4.72-16.5,5.53-5.82,1.21-14.9-2.55-22.69,3.61-1.27,1-.44.37.39,0,.31-.14.69-.32.85-.41,9.28-4.89,24.94,1.58,36.38-6.09a19.827,19.827,0,0,0,4.28-3.97c.25-.43.6-.51.68-.16.17.77-3.36,3.83-3.99,4.2-3.55,2.14-4.11,3.16-13.26,4.5-5.55.81-14.81-.74-20.45.94-6.6,1.98-7.19,3.93-8.76,4.92a7.665,7.665,0,0,0-.89,1.01,19.221,19.221,0,0,0,3.21-1.49,31.421,31.421,0,0,1,4.64-1.86c.39-.09,1.04-.23,1.44-.3,6.17-1.1,20.36-1.27,19.69-1.21,5.27-.46,9.75.23,15.31-5.62a6.5,6.5,0,0,0,.51-.64c.32-.47.39-.51.58-.34.41.38-.96,1.73-1.35,2.14-7.99,8.56-24.86,3.57-36.3,6.73-2.91.8-5.74,2.72-8.07,3.56a4.2,4.2,0,0,0-1.42.92c-.42.46-.57.33-.55,1.15.01.28,0,.44.49.16,14.96-8.67,34.24-4.16,39.64-7.59,1.81-1.15,1.48-.03,6.3-4.61.21-.2.43-.17.5.06.04.15-.07.28-.76.91a15.949,15.949,0,0,1-2.69,2.47,39.691,39.691,0,0,1-17,6.05,89.268,89.268,0,0,1-11.21.71c-.46-.01-6.96.83-7.31.99a11.154,11.154,0,0,1-1.7.48c-.37.06-.6.15-.52.18a2.324,2.324,0,0,0,.68-.05c1.09-.41,9.21.05,12.76-.01,7.14-.11,3.54.62,11.4-.6a6.138,6.138,0,0,0,1.69-.53c10.79-4.69,4.65-2.36,9.59-5.22.31-.18,1.11-.86,1.39-1.09,1.29-1.05,2.37-2.41,2.35-1.63-.01.24-.53.78-2.09,2.13C89.5,46.88,79.32,43.42,75.6,44.08c-3.42.61-15.47-3.05-19.97,5.52-.28.53-.21.53.4-.02,6.04-5.43,10.21-5.1,19.09-4.46,12,.86,13.6.29,16.36-.77,4.74-1.82,3.19-.9,8.57-5.16a12.137,12.137,0,0,0,2.18-2.29c.61-.61,1.26.46-3.03,3.75-.29.22-.62.48-.74.59-13.7,12-31.36-3.37-43.2,9.9a3.359,3.359,0,0,0-.74,1.48v.21c5.01-4.55,5.93-4.59,11.28-5.65,4.68-.93,5.02.02,11.04.09,5.21.06,10.03,1.74,16.76-1.53.7-.34,4.73-1.75,6.91-5.15.31-.48.54-.7.68-.65,1.05.44-2.63,4.14-5.42,5.46-7.03,3.31-7.96,3.03-12.9,2.94C75.03,48.19,62.95,45,55.6,52.63c-.14.14-.51.49-.81.76-1.33,1.18-.69.97.01.44,4.25-3.22,14.53-5.56,19.38-4.8.24.04,2.54.21,2.92.24,4.86.28,7.7,1.56,12.88.08,4.88-1.4,8.72-4.67,8.97-5.25a.307.307,0,0,1,.46-.07c.1.12-.01.4-.25.65a20.188,20.188,0,0,1-7.82,4.82c-4.9,1.79-6.05,1.08-16.69.22-14.5-1.17-23.64,6.8-23.11,8.69l.07.23A30.741,30.741,0,0,1,66,51.75a25.17,25.17,0,0,1,4.6-.3c8.19-.11,14.15,6.37,26.25-2.72.87-.65.93,0,.43.43a35.6,35.6,0,0,1-3,1.93c-12.25,6.31-12.96,1.07-25.96.99-3.3-.02-11.19,2.48-15.32,6.1-1.39,1.22-1.29.75-1.28,1.69a1.375,1.375,0,0,1-.09.71c-.22.31,0,.24.58-.2,18.74-13.97,32.27,2.63,43.88-9.83.72-.77,1.02-.39.65.09a37.38,37.38,0,0,1-3.31,2.83c-7.62,5.04-19.28,1.39-23.19,1.43-17.11.16-23.96,13.44-19.1,7.88,2.39-2.74,12.86-6.76,16.06-6.4a5.168,5.168,0,0,0,.63-.02c10.14-.81,17.12,3.5,22.7,1.17a7.649,7.649,0,0,0,2.3-1.45c.63-.52,2.26-1.77,1.94-1.02a20.281,20.281,0,0,1-3.15,2.6c-4.11,2.43-10.45,1.45-15.49,1.33-13.68-.34-14.9,1.67-17.78,2.34-1.43.34-8.98,3.64-9.19,5.45-.03.28-.06.37-.19.48-.46.46.31-.05,2.04-.7,7.58-2.85,7.21-3.83,11.43-4.11,2.94-.19,1.76-1.16,15.5-1.11,5.24.02,9.67,1.6,14.83-2.77.9-.76,1.02-.83,1.11-.62.31.77-3.45,3.2-6.54,4.04-2.44.66-4.01.07-5.6.23a16.267,16.267,0,0,1-2.68-.16c-3.93-.42-17.79.4-21.72,2.42-4.94,2.53-9.84,3.5-10.02,5.67-.06.75-.34,1.09.2.69a47.927,47.927,0,0,1,20.42-6.78c.43-.03,1.03-.09,1.33-.13,9.52-1.35,17.26,2.61,22.7-3.18.31-.33.42-.41.55-.39,1.42.21-3.64,3.78-6.58,4.18-5.21.71-20.19-3.09-35.94,5.6-.66.36-2.76,1.24-2.98,2.04a5.108,5.108,0,0,0-.18,1.17c.01.04.25-.08.53-.26a67.371,67.371,0,0,1,10.92-5.36c3.05-1.26,1.5-.41,8.37-1.6,9.01-1.56,19.69,1.67,24.08-2.71,1.63-1.62.81,2.45-6.88,2.91-8.18.49-11.05-.82-17.06.37-6.75,1.34-3.95-.34-11.73,2.94-1.72.72-8.02,3.82-8.56,4.9l-.17.34c20.78-13.34,33.96-2.33,42.57-8.76,1.78-1.33,1.99-.62.59.2-4.88,2.85-3.76,2.87-16.83,2.29a66.282,66.282,0,0,0-7.15.17,15.884,15.884,0,0,0-6.74,1.04c-2.83.8-9.66,3.54-11.63,5.23-.62.53-.75.57-1.11.34a.645.645,0,0,1-.28-.45c-.07-.32-.07-.33.19-.86a4.573,4.573,0,0,0,.45-2.12c.37-4.08.37-5.2-1.13-10.69-2.75-10-11.58-13.92-14.93-16-.5-.31-1.76-1.35-2.52-1.72-1.89-.93-5.29-3.96-5.36-4.4-.01-.04-.19-.37-.4-.74-2.05-3.47-1.47-4.95-1.01-4.68.13.08.13.07.15.82.09,2.83,3.08,6,5.6,7.57,3.68,2.29,3.59,2.58,6.18,3.93A26.134,26.134,0,0,1,47.17,67.96c.04.65.07.74.18.68a6.5,6.5,0,0,0,.84-.81c1.11-2.66-1.25-9.85-2.94-12.49a30.438,30.438,0,0,0-10.14-9.7c-5.19-2.88-11.32-6.72-13.02-12.83-.15-.53-.19-2.06.31-1.85.16.07.2.28.13.77-.32,2.22,3.98,8.28,8.29,10.41,3.33,1.64,12.14,8.2,14.01,11.46,1.66,2.89,2.15,2.35,3.88,9.48l.09.2c.6-2.71-2.04-11.2-6.58-15.3-7.76-7.03-16.93-9.46-19.31-16.77-.14-.42-.33-1.54.11-1.58.23-.03.32.39.28.59-.24,1.23,2.98,6.28,7.82,9.04,1.47.84,5.5,3.72,5.5,3.72,6.92,3.64,11.82,11.43,12.44,16.9.28,2.47.96,1.95.07-3.14-.85-4.91-6.25-11.99-9.4-13.76a16.4,16.4,0,0,1-2.1-1.53c-1.5-1.13-12.35-6.65-14.27-12.64-.17-.52-.17-.63-.01-.78.22-.21.47-.1.42.18-.22,1.47,3.89,5.66,5.02,6.63,5.32,4.56,13.73,7.12,17.89,14.88l1.96,3.45c.66,1.01,1.82,7.22,1.4,8.22a3.42,3.42,0,0,0-.1,1.07c.03-.02.66-.69.78-.76.33-.21.21-.73.3-1.15A2.6,2.6,0,0,0,51,59.34c-.51-2.04,1.11-3.67-3.32-11.07-1.71-2.86-4.44-4.88-6.92-7.02a39.835,39.835,0,0,0-6.92-4.64c-7.39-4.05-7.31-5.36-8.07-6.34-.71-.91-2-3.27-1.52-3.78.17-.18.28-.1.38.27,2.22,7.79,12.61,9.02,20.66,17.56,4.43,4.7,6.13,10.36,6.09,12-.01.6,0,.6.48.06a2.266,2.266,0,0,0,.49-.71c.47-1.78-.68-6.18-1.33-7.41a29.719,29.719,0,0,0-7.5-9.11c-5.16-4.23-15.04-8.84-17.26-14.04a3.8,3.8,0,0,1-.51-1.87c.14-.34.28-.14.78,1.07L27,25.46a25.943,25.943,0,0,0,2.52,2.87C37.06,35.11,51.9,40.2,53,54.3c.42-.35.58-.27.53-1.82a10.874,10.874,0,0,0-2.26-6.87C42.76,33.71,36.7,34.53,30.63,27.77c-.1-.12-1.79-1.86-1.79-1.86-.9-.66-3.11-5.58-1.89-5.55.15,0,.27.27.28.63.37,7.02,15.62,14.07,17.52,16.32,1.33,1.57,7.38,6.58,8.95,12.04.26.91.36.99.31.25a13.544,13.544,0,0,0-.8-4.06c-.56-2.15-.94-1.73-2.39-3.92a31.681,31.681,0,0,0-6.95-6.76c-.36-.19-6.66-4.6-6.83-4.68-.29-.12-5.78-5.48-6.01-5.69-2.47-2.32-3.33-7.42-2.37-7.5.28-.03.33.1.24.57a3.522,3.522,0,0,0,.12,1.33,8.339,8.339,0,0,0,.92,2.85c.49,1.42,6.57,8.03,14.42,12.6,3.01,1.75,9.44,9.46,9.13,9.6.75-.32-3.89-7.6-6.4-9.86C40.82,28.43,34.7,25.77,30.3,19.17a10.518,10.518,0,0,1-1.38-4.02c-.22-.87.48-.98.54-.22.8,10.83,23.97,15.9,25.42,32.99a5.141,5.141,0,0,1,.08.82,2.617,2.617,0,0,0,.01.49c.03.25.07.22.35-.31.31-.6-.36-6.13-.95-7.25-2.12-4.04-1.41-5.14-7.85-10.74-5.31-4.6-6.28-3.48-11.96-10.07a20.843,20.843,0,0,1-2.66-5.24,2.032,2.032,0,0,0-.3-.65c-2.1-3.3-.73-3.45-.66-2.77a13.832,13.832,0,0,0,2.57,4.52c5.57,7.29,9.03,5.89,17.64,17.39,1.83,2.44,2,3.92,3.4,6.69,2.21,4.38.56,8.56,1.81,6.63.73-1.12-.02-3.73-.25-4.85a29.907,29.907,0,0,0-4.07-10.39,34.252,34.252,0,0,0-7.98-8.89c-3.35-2.66-10.05-7.9-11.87-11.78-1.79-3.84-.79-4.62-.49-3.1a14.94,14.94,0,0,0,1.19,3.3c.83,2.28,3.07,4,12.39,11.9a28.671,28.671,0,0,1,5.83,6.12,42.124,42.124,0,0,1,4.07,7.68,21.108,21.108,0,0,1,1.33,4.94c.04.29.58,3.52.53,3.81-.13.75.56.11.44-.46-.03-.12-.05-1.24-.05-1.38a28.49,28.49,0,0,0-2.57-9.65,15.844,15.844,0,0,0-1.21-2.72C50.1,25,37.35,16.19,34.44,12.35a19.951,19.951,0,0,1-2.3-5.28.307.307,0,0,1,.55-.21,33.392,33.392,0,0,0,1.82,4.47c2.19,3.63,18.54,15.42,20,21.04.07.28.43.9.46.81.43-1.04-1.79-4.17-2.27-4.99-2.22-3.79-5.71-6.51-8.84-9.51C40.82,15.76,33.78,8.85,32.48,4.83c-.56-1.73.58-1.79.35-1.25-.42,1,2.95,5.93,3.68,6.64,3.57,3.51,6.97,7.18,10.61,10.62a29.34,29.34,0,0,1,4.51,4.61c.55.83,1.04,1.7,1.59,2.52,3.12,4.71,4.17,11.78,4.5,12.49a14.5,14.5,0,0,0-.31-3.05c-.45-1.66,0-3.79-3.27-10.44C50.99,20.55,37.8,10.2,36.03,7.23a10.653,10.653,0,0,1-1.88-4.16,1.481,1.481,0,0,1-.04-.56c.06-.14.33-.24.42-.15a3.478,3.478,0,0,1,.2.82c1.1,6.35,13.53,12.92,20.25,24.15,4.01,6.7,3.07,19.22,3.58,10.88a29.253,29.253,0,0,0-.48-4.95c-1.72-5.26-1.51-6.98-7.35-13.97C47.59,15.55,36.84,7.49,36.11-1.37c-.09-1.1-.04-1.56.18-1.62.15-.04.38.17.37.34A10.067,10.067,0,0,0,37.13.73c4.1,13.49,23.19,19.92,21.89,38.4-.04.61-.07,1.17-.07,1.25.01.13.02.13.13-.02a4.386,4.386,0,0,0,.52-1.26c.06-.23.15-.61.21-.85s.15-.63.2-.88a19.214,19.214,0,0,0-2.59-13.55C52.76,16.1,40.68,10.66,38.16-3.02a5.665,5.665,0,0,1-.1-.95c0-.14-.09-2.08-.05-2.18.02-.06.13-.12.23-.14.35-.06.38.33.37.69C37.84,11.97,65.9,19.17,60.26,38.72c1.32-1.36,2.1-6.07,1.74-8.25-.27-1.6-.44-3.18-.61-3.84C58.3,14.93,35.86,5.35,39.88-9.57c.19-.69,1.11-.9.61.29-.54,1.29-.81,3.91.34,7.32,4.93,14.55,23.9,19.15,21.56,36.45,1.14-1.39,1.4-1.06.9-5.37-.12-1,.03-.8-.12-1.81C61.44,16.11,49.8,10.25,44.19,2.89,39.81-2.85,40.67-8.55,41.13-9.65c.12-.28.32-.35.47-.16s.13.34-.08.94c-.72,2.06-.25,6.97,2.79,10.95C49.19,8.48,57.9,14.19,60.96,19.7c3.37,6.07,2.6,8.88,2.86,9.62,0,0,.15,2.25.25,3.28.69-1.32.58-7.05-1.07-11.03-1.84-4.45-4.87-7.86-8.25-11.17-.8-.78-7.92-6.88-10.48-10.47-2.41-3.38-1.94-7.62-2.16-8.7-.17-.85.9-.64.68-.11a4.786,4.786,0,0,0-.05,1.01C41.55,2.87,57.5,8.16,62.89,19.77a51.071,51.071,0,0,1,1.92,6.31c.94-4.98-2.67-10.79-5.82-14.4C52.94,4.74,43.38-1.33,44.66-7.89c.07-.35.09-.4.21-.45a.321.321,0,0,1,.41.32,1.308,1.308,0,0,1-.08.36c-1.19,2.9,1.97,6.31,3.68,8.25,2.91,3.3,6.24,6.18,9.28,9.35,2.73,2.85,5.39,6.08,6.38,9.99a11.641,11.641,0,0,1,.35,1.59c.27,3.56.84,1.9-.34-2.9C61.98,8.17,45.83-.8,46.19-6c.03-.37-.1-1.78.22-1.91.12-.05.36.04.38.14.01.05.07.08.17.08.24.01.29.14.29.81.02,4.25,11.39,10.62,15.96,16.94,4.35,6.02,3.02,13.47,3.08,14.13s.58-2.05.65-2.66c.19-1.63-.03-2.26.11-3.44.34-2.92-3.32-8.91-5.36-11C59.05,4.39,49.6-3.27,50.22-2.81a8.486,8.486,0,0,1-1.47-1.81c-.51-.86-1.76-3.27-.81-3C48.07-7.58,48.14-7.46,48.31-6.96Z" fill="#fed09e" fill-rule="evenodd"/>
            <path id="Path_3" data-name="Path 3" d="M20.2,38.09a4.973,4.973,0,0,0,1.65,2.43c4.06,3.87,2.54,2.22,6.38,4.82.21.14,3.56,2.12,3.94,2.3,6.16,2.97,11.46,10.44,12.41,17.02a9.37,9.37,0,0,0,.25,1.1c.9,3.26.61,9.2-.03,9.03-.17-.04-.17-.13-.08-.84.68-4.98-.83-9.54-1.74-13.01-.36-1.4-1.38-2.86-2.99-5.6C35.78,48.2,22.17,44.6,19.86,38.78c-.32-.81-.34-.97-.13-1.11.2-.11.27-.18.47.42Z" fill="#fed09e" fill-rule="evenodd"/>
            <path id="Path_4" data-name="Path 4" d="M89.66,67.49c.06.32-1.67,2.34-3.9,3.07-8.47,2.78-11.94-.5-21.15.13-2.69.18-6.07-.78-16.23,4.99-.27.15-.46.1-.47-.13-.01-.28.15-.41.99-.82,5.12-2.47,10.99-6.66,25.67-4.06a45.833,45.833,0,0,0,4.58.27,9.341,9.341,0,0,0,4.31-.43,9.942,9.942,0,0,0,5.48-2.78c.47-.54.66-.6.72-.24Z" fill="#fed09e" fill-rule="evenodd"/>
            <path id="Path_5" data-name="Path 5" d="M19.35,40.14a5.408,5.408,0,0,0,1.53,2.36,27.64,27.64,0,0,0,6.56,4.43C38.97,52.34,44.5,60.54,44.02,73.34c-.04,1.08-.66,1.29-.56.35.04-.39.05-1.43.05-1.43.01-.03-.02-.73-.08-1.56C41.89,48.07,23.8,49.1,19.48,41.91c-1.27-2.11-.94-3.91-.13-1.77Z" fill="#fed09e" fill-rule="evenodd"/>
            <path id="Path_6" data-name="Path 6" d="M88.28,70.77c.12.56-3.57,2.77-3.92,2.62-.04-.02-.11.01-.16.07-1.84,2.18-18.1-2.08-25.95-.58a21.605,21.605,0,0,0-8.5,3.93c-.29.29-.64.25-.67-.07-.04-.46,2.93-1.92,3.23-2.18,1.01-.84,3.16-1.23,3.79-1.63,1.54-.98,4.45-.81,5.38-.87,12.31-.8,19.61,3.95,25.01-.37a5.868,5.868,0,0,1,.66-.48c.48-.29,1-1.05,1.13-.44Z" fill="#fed09e" fill-rule="evenodd"/>
            <path id="Path_7" data-name="Path 7" d="M17.98,41.6c6.41,7.84,16.4,6.25,22.45,20.72,1.41,3.37,2.77,11.03,2.19,11.44-.12.09-.4.01-.43-.12a7.054,7.054,0,0,1,.01-1.22c.23-.54-1.51-12.44-7.56-18.16-6.67-6.3-15.13-8.02-17.23-12.5-.24-.52.18-.64.57-.16Z" fill="#fed09e" fill-rule="evenodd"/>
            <path id="Path_8" data-name="Path 8" d="M17.34,43.41c1.06,1.58,2.41,1.52,9.07,6.3a50.827,50.827,0,0,1,7.39,6.34c.49.36,4.42,5.55,5.04,7.76,1.35,4.82,1.84,3.15,2.36,8.44.06.66,0,.87-.23.81-.2-.05-.24-.21-.31-1.17-.26-3.69-3.45-10.91-5.05-12.61-.15-.16-1.5-2.02-1.57-2.12-1.69-2.51-8.53-7.29-9.04-7.75-2.07-1.84-8.84-4.93-8.11-6.05.18-.27.24-.26.45.05Z" fill="#fed09e" fill-rule="evenodd"/>
            <path id="Path_9" data-name="Path 9" d="M87.25,73.64c.08.19-.04.3-.91.88a15.589,15.589,0,0,1-6.46,1.75c-8.74.67-18.48-5.12-27.57,1.13a3.252,3.252,0,0,0-.49.38.4.4,0,0,1-.47.1c-.23-.14.14-.55.36-.71.96-.68,2.59-1.59,2.69-1.67,2.73-2.04,12.88-1.77,16.36-.72,1.36.42,10.51,2.42,15.35-.78.37-.24.97-.76,1.14-.36Z" fill="#fed09e" fill-rule="evenodd"/>
            <path id="Path_10" data-name="Path 10" d="M17.02,45.12c1.51,1.47,16.72,9.89,20.3,20.49.25.74,2.86,7.25,1.67,6.89-.47-.14-.36-1.6-.58-2.02A35.9,35.9,0,0,0,30.73,56.5a69.825,69.825,0,0,0-10.78-8.56c-1.04-.4-4.43-2.92-3.65-2.86.06,0,.07-.03.04-.12-.05-.17.06-.3.2-.24a2.585,2.585,0,0,1,.48.4Z" fill="#fed09e" fill-rule="evenodd"/>
            <path id="Path_11" data-name="Path 11" d="M16.01,46.63c1.28,1.46,11.21,7.03,13.23,9.64a6.939,6.939,0,0,0,.59.65c1.92,1.89.91,1.02,2.75,3.4.25.32.64,1.17.71,1.26a18.263,18.263,0,0,1,3.44,7.76c1.03,2.96-.07,2.87-.16,1.68a5.1,5.1,0,0,0-.22-.99c-.45-1.28-.31-4.79-6.27-11.96a41.459,41.459,0,0,0-9.06-7.09c-1.53-.68-1.05-.85-2.31-1.55-.52-.29-3.58-2.13-3.53-2.74a1.664,1.664,0,0,1,.09-.28c.16-.37.49-.07.74.22Z" fill="#fed09e" fill-rule="evenodd"/>
            <path id="Path_12" data-name="Path 12" d="M86.42,76.08c-.01.46-2.73,1.73-3.13,1.94C78.75,80.4,61.8,73.61,55,79.01c-.45.36-.94-.05-.46-.39,7.99-5.49,23.72,1.17,28.93-1.25,1.76-.81,2.97-1.98,2.95-1.29Z" fill="#fed09e" fill-rule="evenodd"/>
            <path id="Path_13" data-name="Path 13" d="M14.74,47.94c5.04,4.87,13.86,5.12,20.3,22.26.18.47.16.62-.07.66-.09.01-.16-.02-.26-.14a11.97,11.97,0,0,1-.82-2.23c-.1-1.23-3.83-7.52-4.52-8.02a2.627,2.627,0,0,1-.44-.54c-3.13-4.73-10.38-8.27-11.31-9.11a5.108,5.108,0,0,0-1.07-.66c-3.33-1.69-2.27-2.66-1.81-2.22Z" fill="#fed09e" fill-rule="evenodd"/>
            <path id="Path_14" data-name="Path 14" d="M84.7,78.75c-.11.06-.11.07.02.03.22-.06.18-.15-.02-.03Zm1.05-.92c.02.13-.17.35-.47.52-.39.24-.4.34,0,.22.36-.11.44-.11.5.05.08.2-.07.32-.79.64-.41.18-.96.44-1.22.59-4.6,2.58-16.34.17-19.81,2.31-.85.52-.99.59-1.2.58-.39-.01-.23-.44.25-.63a9.571,9.571,0,0,0,.89-.5c3.37-2.04,15.4-.1,18.85-1.94-8.5,1.2-4.04.05-17.18-.74-3.74-.22-7.21,1.49-7.24,1.82-.04.4-.88.19-.47-.31,1.46-1.76,7.57-2.48,10.29-1.8a4.41,4.41,0,0,0,.96.12c4.21-.15,10.49,2.37,15.56-.62.72-.44,1.04-.53,1.08-.31Z" fill="#fed09e" fill-rule="evenodd"/>
            <path id="Path_15" data-name="Path 15" d="M14.46,50.08c2.37,2.88,6.76,3.35,10.46,7.14,2.9,2.98,8.75,12,7.54,12.5-.15.06-.38-.19-.49-.54-.95-3.08-6.05-10.68-7.14-11.14-.02-.01-.92-.92-1.01-1.06-.38-.6-1.26-.75-1.58-1.06-1.54-1.49-5.72-2.71-7.72-4.95a4.017,4.017,0,0,0-.46-.47.548.548,0,0,1-.08-.78c.08-.09.15-.04.48.36Z" fill="#fed09e" fill-rule="evenodd"/>
            <path id="Path_16" data-name="Path 16" d="M84.76,80.09c.08.81-3.06,2.33-3.86,2.65-2.03.81-8.48-1.15-13.22.87-.89.38-1.05.39-1.17.08-.18-.43.15-.31,1.28-.8a11.93,11.93,0,0,1,4.51-.86c2.38.08,3.07-.33,5.62.24,2.48.55,5.6-1.49,6.37-2.14.24-.2.45-.22.47-.04Z" fill="#fed09e" fill-rule="evenodd"/>
            <path id="Path_17" data-name="Path 17" d="M13.39,50.9c.55,1.1,4.51,4.03,5.06,4.26a22.278,22.278,0,0,1,5.68,4.44c7.06,7.53,6.42,10.54,5.77,9.06C27.79,63.9,22.37,58.18,21,57.6a.733.733,0,0,1-.35-.29c-.36-.65-8.68-4.95-7.72-6.65.12-.22.27-.15.46.24Z" fill="#fed09e" fill-rule="evenodd"/>
            <path id="Path_18" data-name="Path 18" d="M13.52,52.32C20.17,58.5,25.94,62.1,27.69,67.4c.15.46.17.58.09.73-.23.43-.48-.1-.65-.55-2.05-5.57-5.89-7.23-6.89-8.42-.91-1.09-7.07-5.79-7.38-6.67-.09-.31.27-.53.66-.17Z" fill="#fed09e" fill-rule="evenodd"/>
            <path id="Path_19" data-name="Path 19" d="M84.08,82.18c.31.77-2.96,2.19-5.54,2.07-.32-.02-.85-.03-1.19-.04-2.71-.03-5.13-.59-7.53,1.06-.8.55-1.18-.02-.06-.59,5.29-2.73,10.09.53,13.44-2.26a2.371,2.371,0,0,1,.6-.4c.15,0,.24.05.28.16Z" fill="#fed09e" fill-rule="evenodd"/>
            <path id="Path_20" data-name="Path 20" d="M13.02,53.3a6.381,6.381,0,0,0,.6.79c4.11,4.82,10.43,8.67,11.25,12.28.06.26.01.44-.14.5-.23.09-.34-.07-.7-1-1.29-3.4-7.09-7.11-9.63-10-1.12-1.28-1.35-1.7-1.09-.41.6,2.96,4.97,4.73,8.9,9.58.22.27.25.35.19.48-.23.54-1.01-.58-1.89-1.66-3.71-4.52-6.48-3.65-7.84-9.05-.1-.4.27-.52.03-.85-.4-.52.06-1.3.32-.66Z" fill="#fed09e" fill-rule="evenodd"/>
            <path id="Path_21" data-name="Path 21" d="M83.25,84.14c.16.24-.13.51-1.03.96-2.63,1.33-7.21-.13-9.21,1.34-.63.46-.8-.09-.21-.53,2.29-1.71,7.55.13,9.41-1.37a2.187,2.187,0,0,1,.94-.49.272.272,0,0,1,.1.09Z" fill="#fed09e" fill-rule="evenodd"/>
            <path id="Path_22" data-name="Path 22" d="M12.12,56.14a1.751,1.751,0,0,1,.12.56c.2,2.77,5.18,4.74,6.2,6.49.52.9.44,1.63-.49.36-.4-.55-.89-1.1-3.28-2.76-3.98-2.75-3.09-5.51-2.55-4.65Z" fill="#fed09e" fill-rule="evenodd"/>
            <path id="Path_23" data-name="Path 23" d="M82.55,85.84c.45.45-1.88,1.41-3.16,1.38a4.74,4.74,0,0,0-2.94.62c-1.45.87-.86-1.3,2.96-1.22a4.283,4.283,0,0,0,2.53-.71c.29-.2.46-.22.61-.07Z" fill="#fed09e" fill-rule="evenodd"/>
            <path id="Path_24" data-name="Path 24" d="M81.82,87.63c.31.75-1.88,2.08-2.98,1.41-.61-.37-.47-1.22-.02-.66a2.577,2.577,0,0,0,1.37.27c.79-.29,1.34-1.72,1.63-1.02Z" fill="#fed09e" fill-rule="evenodd"/>
            <path id="Path_25" data-name="Path 25" d="M11.17,58.08a.909.909,0,0,1,.09.4c-.01,2.06,2.97,2.72,3.42,3.67.11.23.06.54-.07.54,0,0-.87-.62-1.33-.87-3.66-1.96-2.64-4.58-2.11-3.74Z" fill="#fed09e" fill-rule="evenodd"/>
          </g>
        </g>
      </g>
      <path id="Path_27" data-name="Path 27" d="M34.83,72.11a68.766,68.766,0,0,1,.62-25.04c-.09-.61-.18-1.23-.28-1.86a.454.454,0,0,0-.33-.55L29,43.88l6.05-3.06c1.17-.55,1.49-.56,2.05.5.09-.27.19-.53.29-.79-.41-.87-.84-1.73-1.29-2.56a1.307,1.307,0,0,0-.34.41s.05-.29.16-.74C25.15,17.88,4.11,8,4.11,8S-3.66,32.38,5.38,54.6c.52.22,1.04.43,1.55.67,11.94,5.48,20.59,14.94,26.06,22.57A47.616,47.616,0,0,0,34.83,72.11Z" fill-rule="evenodd" fill="url(#linear-gradient-2)"/>
      <g id="Group_6" data-name="Group 6">
        <g id="Group_5" data-name="Group 5" clip-path="url(#clip-path-2)">
          <g id="Group_4" data-name="Group 4">
            <path id="Path_28" data-name="Path 28" d="M-8.1,58.57c2.13.2,18.45-6.39,32.3,4.28a5.081,5.081,0,0,1,1.42,1.39.2.2,0,0,1-.22.01,43.006,43.006,0,0,0-4.57-2.35c-2.43-1.17-9.96-3.69-12.62-3.48-.61.06-8.39-.42-11.75-.06-6.05.64-4.83.19-4.56.21ZM42.56,17.89c-2.09,5.4-9.26,8.93-14.29,13.33-5.1,4.46,3.6-4.97,9.37-8.8a8.033,8.033,0,0,0,.68-.51A20.5,20.5,0,0,0,42,18.29c.29-.43.56-.74.65-.71a1.293,1.293,0,0,1-.09.31ZM-16.73,38.27a14.62,14.62,0,0,0,4.74.11c.59-.1,18.63.1,28.86,5.76.5.27.93.53.96.56a.885.885,0,0,1,.01.6.6.6,0,0,1-.11.06,2.489,2.489,0,0,1-.66-.38c-7.55-5.15-21.45-3.37-27.48-4.81-5.66-1.34-8.03-2.15-6.32-1.9ZM.32,19.58c.01.02-.05.02-.13.01-.19-.02-.22-.08-.02-.06a.809.809,0,0,1,.15.05ZM29.03-5.05h0c.02-.2-.05-.12-.41.44C23.54,3.34,9.78,7.55,10.07,20.45a6.542,6.542,0,0,0,.06,1.78c.07.1.18-.39.47-2.04a18.034,18.034,0,0,1,2.05-6.14C15.21,8.58,22.6,3.01,22.99,2.43s5.84-5.73,6.04-7.48ZM27.64-6.96C25.81-1.65,14.42,3.6,11.19,10.15a4.056,4.056,0,0,1-.34.58c-1.21,1.46-2.81,5.45-2.53,7.62.03.22.03.87.02,1.45a11.925,11.925,0,0,0,.04,1.57c.11.71.1.74-.04.59-.42-.42-.62-3.72-.72-4.12a26.15,26.15,0,0,1,.08-2.69,19.447,19.447,0,0,1,3.1-7.34,40.84,40.84,0,0,1,4.66-4.35c1.28-.83,4.83-3.98,5.37-4.38a23.454,23.454,0,0,0,3.58-2.81c.61-.68,1.36-2.29.73-2.27-.14,0-.18.06-.38.61-.67,1.83-4.27,3.68-6.9,6.12-2.53,2.36-3.1,2.04-4.89,4.05-.26.3-.86.68-1.62,1.52-.25.28-.57.62-.72.76a17.078,17.078,0,0,0-3.47,8.77c-.16,2.86-.8-.4-.24-3.25C8,7.09,9.5,6.99,16.66.78c.98-.85.15.13,1.66-1.46.47-.49,1.79-2.09,1.12-2.29-.15-.04-.24.05-.62.65A9.126,9.126,0,0,1,16.35.21C8.19,6.65,7.32,7.79,6.33,13c-.12.65-.16.62-.4.18a1.963,1.963,0,0,1-.2-1.01c-.29-5.35,3.46-7.1,7.7-10.34A9.229,9.229,0,0,1,14.8.89c.86-.5,3.35-3.17,2.26-3.35-.15-.02-.41.27-.67.76C15.38.16,11.51,1.93,8.84,4.4,7.21,5.9,6.03,6.7,5.35,9.92c-.06.3-.07.31-.2.22-.53-.33-.27-.78-.19-1.61.44-4.24,3.4-4.59,6.58-7.25C12.36.59,12.7.1,12.56-.23c-.29-.69-.48.26-1.64,1.19C8.17,3.16,4.89,3.99,4.47,8.14c-.07.71-.7-.52-.26-2.09C4.54,4.83,6.07,2.9,5.36,2.92c-.44.02-.46.54-.74.89A12.292,12.292,0,0,0,3.58,6.02a.76.76,0,0,1-.28-.16c-.19-.15-.2-.18-.19-.4a3.424,3.424,0,0,1,.15-.66c.22-.67,0-.97-.37-.52-.7.84.58,1.34-2.15,1.29A8.037,8.037,0,0,1-.83,5.53c-.66-.17-.74.35.14.66,1.11.39,2.85-.36,3.89.42.29.22.37.36.31.54-.03.09-.08.1-.35.02a6.961,6.961,0,0,0-1.27-.31A5.3,5.3,0,0,0-.23,6.77a5.228,5.228,0,0,1-2.81.34c-1.3-.42-1.73-.47-1.63.13.04.25.14.32.4.3.83-.06,1.2.79,3.7.03a5.352,5.352,0,0,1,3.85.48c2.04,2.36.51.85-1.31.48A7.458,7.458,0,0,0-.4,8.4a24.414,24.414,0,0,1-2.54.03,12.059,12.059,0,0,1-3.41-.49c-.78-.37-.85.11-.26.51,2.01,1.4,8.65-.55,11.27,2.13.53.54.52.38.55,1,.07,1.66.2.62-2.26-.37-2.56-1.03-4.34-.66-5.74-1.02-3.43-.87-4.92-.4-6.1-1.22-.32-.22-.57-.24-.67-.05-.11.21.06.41.66.77a3.049,3.049,0,0,0,1.84.52c3.25.25,4.11.9,6.7,1.01,2.18.09,5.21,1.12,6.21,3.15.76,1.53.24,1.02-.21.57C1.95,11.18-5.21,12.11-9.3,10.12c-1.33-.65-1.68-.74-1.61-.41.36,1.68,10.99,2.77,13.6,3.98,2.96,1.38,4.1,3.57,2.67,2.38a9.95,9.95,0,0,0-1.38-.9c-2.46-1.63-4.5-1.53-6.89-2.32-4.03-1.34-3.92.94-10.72-2.32-.48-.23-.54-.24-.72-.15a.345.345,0,0,0-.22.31c-.02.2-.01.21.13.22.67.08,5.48,2.54,7.45,2.16,1.46-.28,8.63,1.17,11.31,2.97a8.066,8.066,0,0,1,1.8,1.58C8.5,20,4.25,16.5-.27,14.98c-5.03-1.69-12.33.01-16.87-3.09-.15-.1-.26-.13-.36-.09-.22.09-.09.44.23.63,6.41,3.81,11.73.87,18.96,4.09,1.93.86,5.18,2.54,1.72,1.16-6.9-2.76-17.78-.54-22.45-4.8-.49-.45-.85-.06-.25.48a2.022,2.022,0,0,1,.32.34,14.751,14.751,0,0,0,4.11,1.99,33.323,33.323,0,0,0,7.53,1.02c6.8-.09,14.33,2.33,14.91,4.5.08.29.08.31-.04.24-8.64-5.33-21.93-1.37-28.11-7.25-.46-.44-.51-.46-.71-.35-.82.45,2.85,2.55,3.56,2.9,4.84,2.33,15.88,1.95,17.7,2.81a2.629,2.629,0,0,1-.75-.05c-.4-.07-2.35.1-2.86.08-2.73-.1-2.8.74-9.76-.55-.33-.06-.91-.15-1.29-.19-.92-.11-5.7-1.84-7.27-3.47-.27-.28-.99-1.16-1.21-.85-.13.18-.02.34.52.85,1.99,1.86,1.87,1.8,5.64,3.35a9.308,9.308,0,0,0,3.44.92,4.665,4.665,0,0,1,.74.09c3.77,1.32,9.51.12,13.32.54.44.05,1.32.13,1.97.18,2.7.22,5.62,1.73,5.5,2.42a3.868,3.868,0,0,1-1.44-.63,14.464,14.464,0,0,0-3.05-.92c-3.84-.78-13.45,1.34-21.35-2.01-3.03-1.28-4.07-1.4-6.13-3.04-.79-.62-.8-.63-1.02-.54-1.26.53,9.23,7.65,24.65,6.02,2.53-.27,7.92.64,8.85,2.75a1.686,1.686,0,0,1,.2.59C8,24.99,6.2,22.31-1.69,22.55c-3.73.11-16.87,1.17-23.56-5.24-.74-.71-1.59-1.66-1.77-1.22a1.069,1.069,0,0,0,.55.88,15.94,15.94,0,0,0,4.73,3.26c13.89,6.43,25.29-.45,31.07,6.33.7.82.47.72-.44.37-11.2-4.27-27.24.96-36.61-9.09-.22-.23-.46-.47-.54-.53-.16-.13-.39-.1-.38.04a3.583,3.583,0,0,0,.93,1.27c6.59,6.66,16.68,6.36,18.64,6.67,3.95.63,18.93-.09,19.96,4.27.13.53.07.57-.31.24C8.17,27.74,4.25,26-2.64,26.48c-3.7.26-6.86-.61-10.17-.85-10.08-.74-14.3-5.53-15.6-6.45-.34-.24-1.54-1.49-1.54-1.49-.77-.42-.71,1.11,6.02,5.43.66.42,5.81,2.76,8.56,2.94,7.32.5,4.15.99,16.17,1.1.41,0,.77-.01.81-.02.54-.23,5.89.59,9.25,3.71l.03.41c.04.52,0,.47-.4.22C4,27.38-.68,27.84-8.09,27.99c-17.08.34-22.44-9.22-23.1-9.58a.233.233,0,0,0-.31.11,10.793,10.793,0,0,0,2.16,2.89c10.63,9.92,23.76,6.4,31.73,7.56,9.34,1.37,12.42,8.67,11.15,7.18-2.9-3.41-5.88-4.41-7.06-5.15-3.37-2.12-14.46-.4-25.89-3.03a22.668,22.668,0,0,1-12.08-8.21c-.45-.6-.79-.92-.92-.86-.17.07.69,1.31.77,1.49.42,1.01,2.49,2.87,3.31,3.59,11.03,9.56,26.8,4.14,35.5,8.08,3.19,1.45,6.81,5.13,4.44,3.32-8.9-6.81-16.04-2.66-23.1-3.98-3.4-.63-6.54.04-11.65-2.59-7.27-3.75-6.54-4.47-9.35-8.25-.45-.6-.51-.67-.61-.6-.33.2.81,1.85,1.01,2.18a12,12,0,0,0,3.75,4.37c9.74,6.41,12.59,4.72,16.5,5.53,5.82,1.21,14.9-2.55,22.69,3.61,1.27,1,.44.37-.39,0-.31-.14-.69-.32-.85-.41-9.28-4.89-24.94,1.58-36.38-6.09a19.827,19.827,0,0,1-4.28-3.97c-.25-.43-.6-.51-.68-.16-.17.77,3.36,3.83,3.99,4.2,3.55,2.14,4.11,3.16,13.26,4.5,5.58.81,14.84-.73,20.48.94,6.6,1.98,7.19,3.93,8.76,4.92a7.665,7.665,0,0,1,.89,1.01,19.221,19.221,0,0,1-3.21-1.49A31.421,31.421,0,0,0,7.8,37.24c-.39-.09-1.04-.23-1.44-.3C.19,35.84-14,35.67-13.33,35.73c-5.27-.46-9.75.23-15.31-5.62a6.5,6.5,0,0,1-.51-.64c-.32-.47-.39-.51-.58-.34-.41.38.96,1.73,1.35,2.14,7.99,8.56,24.86,3.57,36.3,6.73,2.91.8,5.74,2.72,8.07,3.56a4.2,4.2,0,0,1,1.42.92c.42.46.57.33.55,1.15-.01.28,0,.44-.49.16C2.51,35.12-16.77,39.63-22.17,36.2c-1.81-1.15-1.48-.03-6.3-4.61-.21-.2-.43-.17-.5.06-.05.15.07.28.77.91a15.949,15.949,0,0,0,2.69,2.47,39.691,39.691,0,0,0,17,6.05,89.268,89.268,0,0,0,11.21.71c.46-.01,6.96.83,7.31.99a11.154,11.154,0,0,0,1.7.48c.37.06.6.15.52.18a2.324,2.324,0,0,1-.68-.05c-1.09-.41-9.21.05-12.76-.01-7.14-.11-3.54.62-11.4-.6a6.138,6.138,0,0,1-1.69-.53c-10.79-4.69-4.65-2.36-9.59-5.22-.31-.18-1.11-.86-1.39-1.09-1.29-1.05-2.37-2.41-2.35-1.63.01.24.53.78,2.09,2.13C-13.5,46.88-3.31,43.42.41,44.08c3.42.61,15.47-3.05,19.97,5.52.28.53.21.53-.4-.02C13.94,44.15,9.77,44.48.89,45.12c-12,.86-13.6.29-16.36-.77-4.74-1.82-3.19-.9-8.57-5.16a12.138,12.138,0,0,1-2.18-2.29c-.61-.61-1.26.46,3.03,3.75.29.22.62.48.74.59,13.7,12,31.36-3.37,43.2,9.9a3.506,3.506,0,0,1,.75,1.48v.21c-5.01-4.55-5.93-4.59-11.28-5.65-4.68-.93-5.02.02-11.04.09-5.21.06-10.03,1.74-16.76-1.53-.7-.34-4.74-1.75-6.91-5.15-.31-.48-.54-.7-.68-.65-1.05.44,2.63,4.14,5.42,5.46,7.03,3.31,7.96,3.03,12.9,2.94C.99,48.19,13.07,45,20.42,52.63c.14.14.51.49.81.76,1.33,1.18.69.97-.01.44-4.25-3.22-14.53-5.56-19.38-4.8-.24.04-2.54.21-2.92.24-4.86.28-7.7,1.56-12.88.08-4.88-1.4-8.72-4.67-8.97-5.25a.307.307,0,0,0-.46-.07c-.1.12.01.4.25.65a20.188,20.188,0,0,0,7.82,4.82c4.9,1.79,6.05,1.08,16.69.22,14.49-1.17,23.64,6.8,23.11,8.69l-.07.23a30.741,30.741,0,0,0-14.39-6.89,25.17,25.17,0,0,0-4.6-.3c-8.19-.11-14.15,6.37-26.25-2.72-.87-.65-.93,0-.42.43a35.6,35.6,0,0,0,3,1.93C-6,57.4-5.29,52.16,7.71,52.08c3.3-.02,11.19,2.48,15.32,6.1,1.39,1.22,1.29.75,1.28,1.69a1.242,1.242,0,0,0,.1.71c.22.31,0,.24-.58-.2-18.75-14-32.28,2.61-43.9-9.86-.72-.77-1.02-.39-.65.09a38.878,38.878,0,0,0,3.31,2.83c7.62,5.04,19.28,1.39,23.19,1.43,17.11.16,23.96,13.44,19.1,7.88-2.39-2.74-12.85-6.76-16.06-6.4a5.168,5.168,0,0,1-.63-.02c-10.14-.81-17.12,3.5-22.7,1.17a7.649,7.649,0,0,1-2.3-1.45c-.63-.52-2.26-1.77-1.94-1.02a20.788,20.788,0,0,0,3.15,2.6c4.11,2.43,10.45,1.45,15.49,1.33,13.68-.34,14.9,1.67,17.78,2.34,1.43.34,8.98,3.64,9.19,5.45.03.28.07.37.19.48.46.46-.31-.05-2.04-.7-7.58-2.85-7.21-3.83-11.43-4.11-2.93-.19-1.76-1.16-15.5-1.11-5.24.02-9.67,1.6-14.83-2.77-.9-.76-1.02-.83-1.11-.62-.31.77,3.45,3.2,6.54,4.04,2.44.66,4.01.07,5.6.23a16.267,16.267,0,0,0,2.68-.16c3.93-.42,17.79.4,21.72,2.42,4.94,2.53,9.84,3.5,10.02,5.67.06.75.34,1.09-.2.69A47.927,47.927,0,0,0,8.08,64.03c-.44-.03-1.04-.09-1.34-.14-9.52-1.35-17.26,2.61-22.7-3.18-.31-.33-.42-.41-.55-.39-1.42.21,3.64,3.78,6.58,4.18,5.21.71,20.19-3.09,35.94,5.6.66.36,2.76,1.24,2.98,2.04a5.107,5.107,0,0,1,.18,1.17c-.01.04-.25-.08-.53-.26a67.371,67.371,0,0,0-10.92-5.36c-3.05-1.26-1.5-.41-8.37-1.6-9.02-1.56-19.69,1.67-24.08-2.71-1.63-1.62-.81,2.45,6.88,2.91,8.18.49,11.05-.82,17.06.37,6.75,1.34,3.95-.34,11.73,2.94,1.72.72,8.02,3.82,8.56,4.9l.17.34C8.9,61.51-4.28,72.52-12.9,66.08c-1.78-1.33-1.99-.62-.59.2,4.88,2.85,3.76,2.87,16.83,2.29a65.918,65.918,0,0,1,7.14.17,15.884,15.884,0,0,1,6.74,1.04c2.83.8,9.66,3.54,11.63,5.23.62.53.75.57,1.11.34a.645.645,0,0,0,.28-.45c.07-.32.07-.33-.19-.86a4.573,4.573,0,0,1-.45-2.12c-.37-4.08-.37-5.2,1.13-10.69,2.75-10,11.58-13.92,14.93-16,.5-.31,1.76-1.35,2.52-1.72,1.89-.93,5.29-3.96,5.36-4.4.01-.04.19-.37.4-.74,2.05-3.47,1.47-4.95,1.01-4.68-.13.08-.13.07-.15.82-.09,2.83-3.08,6-5.6,7.57-3.68,2.29-3.59,2.58-6.18,3.93A26.134,26.134,0,0,0,28.83,67.92c-.04.65-.07.74-.18.68a6.5,6.5,0,0,1-.84-.81c-1.12-2.66,1.25-9.85,2.94-12.49a30.438,30.438,0,0,1,10.14-9.7c5.19-2.88,11.32-6.72,13.02-12.83.15-.53.19-2.06-.31-1.85-.16.07-.2.28-.13.77.32,2.22-3.98,8.28-8.29,10.41-3.33,1.64-12.14,8.2-14.01,11.46-1.66,2.89-2.15,2.35-3.88,9.48l-.09.2c-.6-2.71,2.04-11.2,6.57-15.3,7.76-7.03,16.93-9.46,19.31-16.77.14-.42.33-1.54-.1-1.58-.23-.03-.32.39-.28.59.24,1.23-2.98,6.28-7.82,9.04-1.47.84-5.5,3.72-5.5,3.72-6.92,3.64-11.82,11.43-12.44,16.9-.28,2.47-.95,1.95-.07-3.14.85-4.91,6.25-11.99,9.4-13.76a15.459,15.459,0,0,0,2.1-1.53c1.5-1.13,12.35-6.65,14.27-12.64.17-.52.17-.63.01-.78-.22-.21-.47-.1-.42.18.22,1.47-3.89,5.66-5.02,6.63-5.32,4.56-13.74,7.12-17.89,14.88l-1.96,3.45c-.66,1.01-1.82,7.22-1.41,8.22a3.42,3.42,0,0,1,.1,1.07c-.03-.02-.66-.69-.78-.76-.33-.21-.21-.73-.3-1.15a2.6,2.6,0,0,1,.02-1.21c.51-2.04-1.11-3.67,3.32-11.07,1.71-2.86,4.44-4.88,6.92-7.02a39.835,39.835,0,0,1,6.92-4.64c7.39-4.05,7.31-5.36,8.07-6.34.71-.91,2-3.27,1.52-3.78-.17-.18-.28-.1-.38.27-2.22,7.79-12.61,9.02-20.66,17.56-4.43,4.7-6.13,10.36-6.09,12,.01.6,0,.6-.47.06a2.266,2.266,0,0,1-.49-.71c-.47-1.78.68-6.18,1.33-7.41a29.719,29.719,0,0,1,7.5-9.11c5.16-4.23,15.04-8.84,17.26-14.04a3.794,3.794,0,0,0,.51-1.87c-.14-.34-.28-.14-.78,1.07L49,25.42a25.943,25.943,0,0,1-2.52,2.87C38.94,35.07,24.1,40.16,23,54.26c-.42-.35-.58-.27-.53-1.82a10.874,10.874,0,0,1,2.26-6.87c8.48-11.85,14.54-11.03,20.62-17.79.1-.12,1.79-1.86,1.79-1.86.9-.66,3.11-5.58,1.89-5.55-.15,0-.27.27-.28.63-.4,7.02-15.65,14.07-17.55,16.32-1.33,1.57-7.38,6.58-8.95,12.04-.26.91-.36.99-.31.25a13.544,13.544,0,0,1,.8-4.06c.56-2.15.94-1.73,2.39-3.92a31.681,31.681,0,0,1,6.95-6.76c.36-.19,6.66-4.6,6.83-4.68.29-.12,5.78-5.48,6.01-5.69,2.47-2.32,3.33-7.42,2.37-7.5-.28-.03-.33.1-.24.57a3.317,3.317,0,0,1-.12,1.33,8.339,8.339,0,0,1-.92,2.85c-.49,1.42-6.57,8.03-14.42,12.6-3.01,1.75-9.44,9.46-9.13,9.6-.75-.32,3.89-7.6,6.4-9.86,6.27-5.65,12.39-8.31,16.79-14.91a10.518,10.518,0,0,0,1.38-4.02c.23-.87-.49-.98-.54-.22-.8,10.83-23.97,15.9-25.42,32.99a5.14,5.14,0,0,0-.08.82,2.616,2.616,0,0,1-.01.49c-.03.25-.07.22-.35-.31-.31-.6.36-6.13.95-7.25,2.12-4.04,1.41-5.14,7.85-10.74,5.31-4.6,6.28-3.48,11.96-10.07a20.843,20.843,0,0,0,2.66-5.24,2.032,2.032,0,0,1,.3-.65c2.1-3.3.73-3.45.66-2.77a13.832,13.832,0,0,1-2.57,4.52c-5.57,7.29-9.03,5.89-17.64,17.39-1.83,2.44-2,3.92-3.4,6.69-2.2,4.38-.56,8.56-1.81,6.63-.73-1.12.02-3.73.25-4.85A29.907,29.907,0,0,1,23.91,32.2a34.252,34.252,0,0,1,7.98-8.89c3.35-2.66,10.05-7.9,11.87-11.78,1.79-3.84.79-4.62.49-3.1a14.94,14.94,0,0,1-1.19,3.3c-.83,2.28-3.07,4-12.39,11.9a28.671,28.671,0,0,0-5.83,6.12,42.124,42.124,0,0,0-4.07,7.68,20.61,20.61,0,0,0-1.32,4.94c-.04.29-.58,3.52-.53,3.81.13.75-.56.11-.44-.46.03-.12.05-1.24.05-1.38a28.49,28.49,0,0,1,2.57-9.65,15.844,15.844,0,0,1,1.21-2.72C25.85,25,38.6,16.19,41.51,12.35a19.951,19.951,0,0,0,2.3-5.28.307.307,0,0,0-.55-.21,33.392,33.392,0,0,1-1.82,4.47c-2.19,3.63-18.54,15.42-20,21.04-.07.28-.43.9-.46.81-.43-1.04,1.79-4.17,2.27-4.99,2.22-3.79,5.71-6.51,8.84-9.51,3.04-2.92,10.08-9.83,11.38-13.85.56-1.73-.58-1.79-.35-1.25.42,1-2.95,5.93-3.68,6.64-3.57,3.51-6.97,7.18-10.61,10.62a29.34,29.34,0,0,0-4.51,4.61c-.55.83-1.04,1.7-1.59,2.52-3.12,4.71-4.17,11.78-4.5,12.49a14.5,14.5,0,0,1,.31-3.05c.44-1.66,0-3.79,3.27-10.44,3.16-6.43,16.35-16.79,18.12-19.75a10.653,10.653,0,0,0,1.88-4.16,1.481,1.481,0,0,0,.04-.56c-.06-.14-.33-.24-.42-.15a3.478,3.478,0,0,0-.2.82C40.12,9.53,27.7,16.1,20.97,27.33c-4.01,6.7-3.06,19.22-3.58,10.88a29.254,29.254,0,0,1,.48-4.95c1.72-5.26,1.51-6.98,7.35-13.97C28.36,15.54,39.1,7.48,39.83-1.37c.09-1.1.04-1.56-.18-1.62-.15-.04-.38.17-.37.34A10.067,10.067,0,0,1,38.81.73c-4.1,13.49-23.19,19.92-21.89,38.4.05.61.08,1.17.08,1.24-.01.13-.02.13-.13-.02a4.386,4.386,0,0,1-.52-1.26c-.06-.23-.15-.61-.21-.85s-.15-.63-.2-.88a19.214,19.214,0,0,1,2.59-13.55c4.66-7.72,16.74-13.16,19.26-26.85a5.665,5.665,0,0,0,.1-.95c0-.14.09-2.08.05-2.18-.02-.06-.13-.12-.23-.14-.35-.06-.38.33-.37.69.78,17.57-27.29,24.78-21.65,44.32-1.32-1.36-2.1-6.07-1.74-8.25.27-1.6.44-3.18.61-3.84,3.09-11.7,25.53-21.27,21.51-36.2-.19-.69-1.11-.9-.61.29.54,1.29.81,3.91-.34,7.32-4.93,14.55-23.9,19.15-21.56,36.45-1.14-1.39-1.4-1.06-.9-5.37.12-1-.03-.8.12-1.81C14.51,16.08,26.15,10.23,31.76,2.86c4.38-5.74,3.52-11.44,3.06-12.54-.12-.25-.32-.32-.47-.13s-.13.34.08.94c.72,2.06.25,6.97-2.79,10.95C26.76,8.48,18.05,14.19,14.99,19.7c-3.37,6.07-2.6,8.88-2.86,9.62,0,0-.15,2.25-.25,3.28-.69-1.32-.58-7.05,1.07-11.03,1.84-4.45,4.87-7.86,8.25-11.17C22,9.62,29.12,3.52,31.68-.07c2.41-3.38,1.94-7.62,2.16-8.7.17-.85-.9-.64-.68-.11a4.786,4.786,0,0,1,.05,1.01C34.4,2.87,18.45,8.16,13.06,19.77a51.071,51.071,0,0,0-1.92,6.31c-.94-4.98,2.67-10.79,5.82-14.4C23.01,4.74,32.57-1.33,31.29-7.89c-.07-.35-.09-.4-.21-.45a.321.321,0,0,0-.41.32,1.308,1.308,0,0,0,.08.36c1.19,2.9-1.97,6.31-3.68,8.25-2.91,3.3-6.24,6.18-9.28,9.35-2.73,2.85-5.39,6.08-6.38,9.99a11.641,11.641,0,0,0-.35,1.59c-.27,3.56-.84,1.9.35-2.9C13.97,8.17,30.12-.8,29.75-6c-.03-.37.1-1.78-.22-1.91-.12-.05-.36.04-.38.14-.01.05-.07.08-.17.08-.24.01-.29.14-.29.81C28.68-2.65,17.31,3.73,12.73,10.05,8.38,16.07,9.71,23.52,9.65,24.18S9.07,22.13,9,21.52c-.19-1.63.03-2.26-.11-3.44-.34-2.92,3.32-8.91,5.36-11,2.64-2.7,12.09-10.36,11.47-9.9a7.9,7.9,0,0,0,1.48-1.8c.51-.86,1.76-3.27.81-3C27.88-7.58,27.81-7.46,27.64-6.96Z" fill="#fed09e" fill-rule="evenodd"/>
            <path id="Path_29" data-name="Path 29" d="M55.75,38.09a4.973,4.973,0,0,1-1.65,2.43c-4.06,3.87-2.54,2.22-6.38,4.82-.21.14-3.56,2.12-3.94,2.3-6.16,2.97-11.46,10.44-12.41,17.02-.03.23-.15.72-.25,1.1-.9,3.26-.61,9.2.03,9.03.17-.04.17-.13.08-.84-.68-4.98.83-9.54,1.74-13.01.36-1.4,1.38-2.86,2.99-5.6C40.17,48.2,53.78,44.6,56.09,38.78c.32-.81.34-.97.13-1.11-.2-.11-.27-.18-.47.42Z" fill="#fed09e" fill-rule="evenodd"/>
            <path id="Path_30" data-name="Path 30" d="M-13.71,67.49c-.06.32,1.67,2.34,3.9,3.07,8.47,2.78,11.94-.5,21.15.13,2.69.18,6.07-.78,16.23,4.99.27.15.46.1.46-.13.01-.28-.15-.41-.99-.82-5.12-2.47-10.99-6.66-25.67-4.06a45.833,45.833,0,0,1-4.58.27,9.341,9.341,0,0,1-4.31-.43A9.942,9.942,0,0,1-13,67.73c-.46-.54-.65-.6-.71-.24Z" fill="#fed09e" fill-rule="evenodd"/>
            <path id="Path_31" data-name="Path 31" d="M56.6,40.14a5.408,5.408,0,0,1-1.53,2.36,27.64,27.64,0,0,1-6.56,4.43C36.98,52.34,31.45,60.54,31.93,73.34c.04,1.08.66,1.29.56.35-.04-.39-.05-1.43-.05-1.43-.01-.03.02-.73.08-1.56,1.53-22.63,19.62-21.6,23.95-28.79,1.27-2.11.94-3.91.13-1.77Z" fill="#fed09e" fill-rule="evenodd"/>
            <path id="Path_32" data-name="Path 32" d="M-12.34,70.77c-.12.56,3.57,2.77,3.92,2.62.04-.02.11.01.16.07,1.84,2.18,18.1-2.08,25.96-.58a21.605,21.605,0,0,1,8.5,3.93c.29.29.64.25.67-.07.04-.46-2.93-1.92-3.23-2.18-1.01-.84-3.16-1.23-3.79-1.63-1.54-.98-4.45-.81-5.38-.87-12.31-.8-19.61,3.95-25.01-.37a5.868,5.868,0,0,0-.66-.48c-.48-.29-1-1.05-1.14-.44Z" fill="#fed09e" fill-rule="evenodd"/>
            <path id="Path_33" data-name="Path 33" d="M57.97,41.6c-6.41,7.84-16.4,6.25-22.45,20.72-1.41,3.37-2.77,11.03-2.19,11.44.12.09.4.01.43-.12a8.218,8.218,0,0,0-.01-1.22c-.23-.54,1.51-12.44,7.56-18.16,6.67-6.3,15.13-8.02,17.23-12.5.24-.52-.18-.64-.57-.16Z" fill="#fed09e" fill-rule="evenodd"/>
            <path id="Path_34" data-name="Path 34" d="M58.61,43.41c-1.06,1.58-2.41,1.52-9.07,6.3a50.142,50.142,0,0,0-7.39,6.34c-.49.36-4.42,5.55-5.04,7.76-1.35,4.82-1.85,3.15-2.36,8.44-.06.66,0,.87.23.81.2-.05.24-.21.31-1.17.26-3.69,3.45-10.91,5.05-12.61.15-.16,1.5-2.02,1.57-2.12,1.69-2.51,8.53-7.29,9.04-7.75,2.07-1.84,8.84-4.93,8.11-6.05-.18-.27-.24-.26-.45.05Z" fill="#fed09e" fill-rule="evenodd"/>
            <path id="Path_35" data-name="Path 35" d="M-11.3,73.64c-.08.19.04.3.91.88a15.589,15.589,0,0,0,6.46,1.75c8.74.67,18.48-5.12,27.57,1.13a3.252,3.252,0,0,1,.49.38.4.4,0,0,0,.47.1c.23-.14-.14-.55-.36-.71-.96-.68-2.59-1.59-2.69-1.67-2.73-2.04-12.88-1.77-16.36-.72C3.83,75.2-5.32,77.2-10.16,74c-.38-.24-.97-.76-1.14-.36Z" fill="#fed09e" fill-rule="evenodd"/>
            <path id="Path_36" data-name="Path 36" d="M58.93,45.12c-1.51,1.47-16.72,9.89-20.3,20.49-.25.74-2.86,7.25-1.67,6.89.47-.14.36-1.6.58-2.02A35.9,35.9,0,0,1,45.22,56.5,69.825,69.825,0,0,1,56,47.94c1.04-.4,4.43-2.92,3.65-2.86-.06,0-.07-.03-.04-.12.05-.17-.06-.3-.2-.24a2.585,2.585,0,0,0-.48.4Z" fill="#fed09e" fill-rule="evenodd"/>
            <path id="Path_37" data-name="Path 37" d="M59.94,46.63c-1.28,1.46-11.21,7.03-13.23,9.64a6.939,6.939,0,0,1-.59.65c-1.92,1.89-.91,1.02-2.75,3.4-.25.32-.64,1.17-.71,1.26a18.263,18.263,0,0,0-3.44,7.76c-1.03,2.96.07,2.87.16,1.68a5.1,5.1,0,0,1,.22-.99c.45-1.28.31-4.79,6.27-11.96a41.459,41.459,0,0,1,9.06-7.09c1.53-.68,1.05-.85,2.31-1.55.51-.29,3.58-2.13,3.53-2.74a1.664,1.664,0,0,0-.09-.28c-.16-.37-.49-.07-.74.22Z" fill="#fed09e" fill-rule="evenodd"/>
            <path id="Path_38" data-name="Path 38" d="M-10.47,76.08c.01.46,2.73,1.73,3.13,1.94,4.54,2.37,21.49-4.42,28.28.99.45.36.94-.05.46-.39-7.99-5.49-23.72,1.17-28.93-1.25-1.75-.81-2.96-1.98-2.94-1.29Z" fill="#fed09e" fill-rule="evenodd"/>
            <path id="Path_39" data-name="Path 39" d="M61.21,47.94c-5.04,4.87-13.86,5.12-20.3,22.26-.18.47-.16.62.07.66.09.01.16-.02.26-.14a11.97,11.97,0,0,0,.82-2.23c.1-1.23,3.83-7.52,4.52-8.02a2.627,2.627,0,0,0,.44-.54c3.13-4.73,10.38-8.27,11.31-9.11a5.108,5.108,0,0,1,1.07-.66c3.33-1.69,2.27-2.66,1.81-2.22Z" fill="#fed09e" fill-rule="evenodd"/>
            <path id="Path_40" data-name="Path 40" d="M-8.75,78.75c.11.06.11.07-.02.03-.22-.06-.18-.15.02-.03Zm-1.05-.92c-.02.13.17.35.47.52.39.24.4.34,0,.22-.36-.11-.44-.11-.5.05-.08.2.07.32.79.64.41.18.96.44,1.22.59,4.6,2.58,16.34.17,19.81,2.31.85.52.99.59,1.2.58.39-.01.23-.44-.25-.63a9.572,9.572,0,0,1-.89-.5c-3.37-2.04-15.4-.1-18.85-1.94,8.5,1.2,4.04.05,17.18-.74,3.74-.22,7.21,1.49,7.24,1.82.04.4.88.19.47-.31-1.46-1.76-7.57-2.48-10.29-1.8a4.41,4.41,0,0,1-.96.12c-4.21-.16-10.48,2.36-15.56-.63-.72-.43-1.04-.52-1.08-.3Z" fill="#fed09e" fill-rule="evenodd"/>
            <path id="Path_41" data-name="Path 41" d="M61.49,50.08c-2.37,2.88-6.76,3.35-10.46,7.14-2.9,2.98-8.75,12-7.54,12.5.15.06.38-.19.49-.54.95-3.08,6.05-10.68,7.14-11.14.02-.01.92-.92,1.01-1.06.38-.6,1.26-.75,1.58-1.06,1.54-1.49,5.72-2.71,7.72-4.95a4.017,4.017,0,0,1,.46-.47.548.548,0,0,0,.08-.78c-.09-.09-.15-.04-.48.36Z" fill="#fed09e" fill-rule="evenodd"/>
            <path id="Path_42" data-name="Path 42" d="M-8.81,80.09c-.08.81,3.06,2.33,3.86,2.65,2.03.81,8.48-1.15,13.22.87.89.38,1.05.39,1.17.08.18-.43-.15-.31-1.28-.8a11.93,11.93,0,0,0-4.51-.86c-2.38.08-3.07-.33-5.62.24-2.48.55-5.6-1.49-6.37-2.14-.24-.2-.45-.22-.47-.04Z" fill="#fed09e" fill-rule="evenodd"/>
            <path id="Path_43" data-name="Path 43" d="M62.56,50.9c-.55,1.1-4.51,4.03-5.06,4.26a22.278,22.278,0,0,0-5.68,4.44c-7.06,7.53-6.42,10.54-5.77,9.06,2.11-4.76,7.53-10.48,8.9-11.06a.733.733,0,0,0,.35-.29c.36-.65,8.68-4.95,7.72-6.65-.12-.22-.27-.15-.46.24Z" fill="#fed09e" fill-rule="evenodd"/>
            <path id="Path_44" data-name="Path 44" d="M62.42,52.32C55.78,58.5,50,62.11,48.26,67.4c-.15.46-.17.58-.09.73.23.43.48-.1.65-.55,2.05-5.57,5.89-7.23,6.89-8.42.91-1.09,7.07-5.79,7.38-6.67.09-.31-.27-.53-.67-.17Z" fill="#fed09e" fill-rule="evenodd"/>
            <path id="Path_45" data-name="Path 45" d="M-8.14,82.18c-.31.77,2.96,2.19,5.54,2.07.32-.02.85-.03,1.19-.04,2.71-.03,5.13-.59,7.53,1.06.8.55,1.18-.02.06-.59C.9,81.95-3.9,85.21-7.25,82.42a2.371,2.371,0,0,0-.6-.4.279.279,0,0,0-.29.16Z" fill="#fed09e" fill-rule="evenodd"/>
            <path id="Path_46" data-name="Path 46" d="M62.93,53.3a6.381,6.381,0,0,1-.6.79c-4.11,4.82-10.43,8.67-11.25,12.28-.06.26-.01.44.14.5.23.09.34-.07.7-1,1.29-3.4,7.09-7.11,9.63-10,1.12-1.28,1.35-1.7,1.09-.41-.6,2.96-4.97,4.73-8.9,9.58-.22.27-.25.35-.19.48.23.54,1.01-.58,1.89-1.66,3.71-4.52,6.48-3.65,7.84-9.05.1-.4-.27-.52-.02-.85.38-.52-.07-1.3-.33-.66Z" fill="#fed09e" fill-rule="evenodd"/>
            <path id="Path_47" data-name="Path 47" d="M-7.3,84.14c-.16.24.13.51,1.03.96,2.63,1.33,7.21-.13,9.21,1.34.63.46.8-.09.21-.53-2.29-1.71-7.55.13-9.41-1.37a2.187,2.187,0,0,0-.94-.49.271.271,0,0,0-.1.09Z" fill="#fed09e" fill-rule="evenodd"/>
            <path id="Path_48" data-name="Path 48" d="M63.83,56.14a1.751,1.751,0,0,0-.12.56c-.2,2.77-5.18,4.74-6.2,6.49-.52.9-.44,1.63.49.36.41-.55.89-1.1,3.29-2.76,3.96-2.75,3.08-5.51,2.54-4.65Z" fill="#fed09e" fill-rule="evenodd"/>
            <path id="Path_49" data-name="Path 49" d="M-6.6,85.84c-.45.45,1.88,1.41,3.16,1.38a4.74,4.74,0,0,1,2.94.62c1.45.87.86-1.3-2.96-1.22a4.283,4.283,0,0,1-2.53-.71c-.29-.2-.46-.22-.61-.07Z" fill="#fed09e" fill-rule="evenodd"/>
            <path id="Path_50" data-name="Path 50" d="M-5.87,87.63c-.31.75,1.88,2.08,2.98,1.41.61-.37.47-1.22.02-.66a2.673,2.673,0,0,1-1.37.26c-.79-.28-1.34-1.71-1.63-1.01Z" fill="#fed09e" fill-rule="evenodd"/>
            <path id="Path_51" data-name="Path 51" d="M64.78,58.08a.909.909,0,0,0-.09.4c.01,2.06-2.97,2.72-3.42,3.67-.1.23-.06.54.07.54,0,0,.87-.62,1.33-.87,3.66-1.96,2.64-4.58,2.11-3.74Z" fill="#fed09e" fill-rule="evenodd"/>
          </g>
        </g>
      </g>
      <path id="Path_53" data-name="Path 53" d="M35.76,38.37s.94-6.02,5-5.01c1.67.42,1.5,1.92.5,2.75s-4.83.93-5.5,2.26Zm7.9,24.58a60.556,60.556,0,0,1,10.7-17.51c.4-.45.81-.88,1.23-1.32C54.94,20.18,38.1,1,38.1,1S21.23,20.23,20.61,44.21c.39.41.78.81,1.15,1.24,7,7.84,11.05,17.17,13.39,25.29,1.41-6.41,1.8-14.49.02-25.53a.454.454,0,0,0-.33-.55L29,43.88l6.05-3.06c1.68-.8,1.61-.47,3.01,2.57A85.642,85.642,0,0,1,43.66,62.95Z" fill-rule="evenodd" fill="url(#linear-gradient-3)"/>
      <path id="Path_54" data-name="Path 54" d="M45.16,80.03c4.86-8.17,10.46-20.58,10.46-34.48,0-.47-.02-.94-.03-1.41-.41.43-.83.87-1.23,1.32a60.556,60.556,0,0,0-10.7,17.51A95.37,95.37,0,0,1,45.16,80.03Z" fill="#b7416e" fill-rule="evenodd"/>
      <path id="Path_55" data-name="Path 55" d="M35.16,70.73c-2.34-8.12-6.39-17.45-13.39-25.29-.38-.42-.77-.83-1.15-1.24-.01.44-.03.89-.03,1.33,0,14.47,6.06,27.32,11.05,35.46A49.187,49.187,0,0,0,35.16,70.73Z" fill="#b7416e" fill-rule="evenodd"/>
    </g>
    <g id="Group_8" data-name="Group 8">
      <path id="Path_56" data-name="Path 56" d="M243.15,55.85a14.788,14.788,0,0,1-10.52-4.21,14.948,14.948,0,0,1,0-20.86,15.249,15.249,0,0,1,21.04,0,14.948,14.948,0,0,1,0,20.86,14.83,14.83,0,0,1-10.52,4.21Zm0-2.49a11.957,11.957,0,1,0-8.7-3.49A12.16,12.16,0,0,0,243.15,53.36Z" fill="#345c89" fill-rule="evenodd"/>
      <path id="Path_57" data-name="Path 57" d="M186.19,55.85a14.788,14.788,0,0,1-10.52-4.21,14.948,14.948,0,0,1,0-20.86,15.249,15.249,0,0,1,21.04,0,14.948,14.948,0,0,1,0,20.86,14.83,14.83,0,0,1-10.52,4.21Zm0-2.49a11.99,11.99,0,1,0-8.69-3.51A12.16,12.16,0,0,0,186.19,53.36Z" fill="#345c89" fill-rule="evenodd"/>
      <path id="Path_58" data-name="Path 58" d="M142.27,27.09h9.35c6.61,0,10.84,3.66,12.69,8.34a15.9,15.9,0,0,1,0,11.52c-1.85,4.68-6.08,8.34-12.69,8.34h-9.53V27.1h.18Zm2.37,25.66h6.98a10.447,10.447,0,0,0,10.23-6.81,13.293,13.293,0,0,0,0-9.46,10.447,10.447,0,0,0-10.23-6.81h-6.98Z" fill="#345c89" fill-rule="evenodd"/>
      <path id="Path_59" data-name="Path 59" d="M305.48,36.89l8.75-9.91.05-.05h.07l3.18-.02H318l-.35.32L305.6,40.78l-.12.12-.12-.12L293.18,27.23l-.35-.32h.47l3.3.02h.07l.05.04Z" fill="#345c89" fill-rule="evenodd"/>
      <path id="Path_60" data-name="Path 60" d="M304.08,55.08V37.68h2.79V55.31h-2.79Z" fill="#345c89" fill-rule="evenodd"/>
      <path id="Path_61" data-name="Path 61" d="M285.29,51.4V46.77H276.6V44.21h11.25v8.4l-.07.05-.15.12a13.717,13.717,0,0,1-4.15,2.28,15.205,15.205,0,0,1-15.31-3.43,14.948,14.948,0,0,1,0-20.86,15.205,15.205,0,0,1,15.31-3.43,13.716,13.716,0,0,1,4.15,2.28l.33.26.15.12-.13.14-1.42,1.6-.11.13-.13-.1-.3-.23a12.413,12.413,0,0,0-3.47-1.87,11.929,11.929,0,0,0-3.86-.64,12.171,12.171,0,1,0,0,24.34,12.311,12.311,0,0,0,3.48-.51A12.846,12.846,0,0,0,285.29,51.4Z" fill="#345c89" fill-rule="evenodd"/>
      <path id="Path_62" data-name="Path 62" d="M210.68,52.75h15.53v2.56H208.12V27.09h2.56V52.75Z" fill="#345c89" fill-rule="evenodd"/>
      <path id="Path_63" data-name="Path 63" d="M97.01,55.12V27.09h2.56V55.31H97.01Z" fill="#345c89" fill-rule="evenodd"/>
      <path id="Path_64" data-name="Path 64" d="M130.31,27.31v-.18h2.56V55.48l-.01-.01L111.28,33.12V55.31h-2.56V26.42l.31.26L130.3,48.77Z" fill="#345c89" fill-rule="evenodd"/>
    </g>
  </g>
</svg>
