<?xml version="1.0"?>
<svg version="1.1" id="圖層_1" xmlns="http://www.w3.org/2000/svg" x="0" y="0" viewBox="0 0 100 100" xml:space="preserve"><path d="M72.929 11H27.071C18.209 11 11 18.209 11 27.071v45.858C11 81.791 18.209 89 27.071 89h45.858C81.791 89 89 81.791 89 72.929V27.071C89 18.209 81.791 11 72.929 11z" fill="#849b87"/><path d="M71 44H56V29a6 6 0 0 0-12 0v15H29a6 6 0 0 0 0 12h15v15a6 6 0 0 0 12 0V56h15a6 6 0 0 0 0-12z" fill="#fff"/><metadata xmlns:d="https://loading.io/stock/"><d:name>enable</d:name><d:tags>add,plus,create,new,insert,update,expand,collapse,enable,form</d:tags><d:license>free</d:license><d:slug>is1plk</d:slug></metadata></svg>